<svg width="715" height="193" viewBox="0 0 715 193" fill="none" xmlns="http://www.w3.org/2000/svg">
<path d="M60.8959 188.16C60.3493 188.16 59.8726 188.013 59.4659 187.72C59.0593 187.42 58.7726 187.003 58.6059 186.47L59.6459 186.04C59.8526 186.74 60.2693 187.09 60.8959 187.09C61.2426 187.09 61.5193 186.973 61.7259 186.74C61.9326 186.5 62.0359 186.187 62.0359 185.8V180.84H63.1459V185.76C63.1459 186.267 63.0493 186.7 62.8559 187.06C62.6626 187.42 62.3959 187.693 62.0559 187.88C61.7159 188.067 61.3293 188.16 60.8959 188.16ZM66.0838 188.16C65.7171 188.16 65.3904 188.09 65.1038 187.95C64.8171 187.803 64.5938 187.6 64.4338 187.34C64.2738 187.073 64.1938 186.773 64.1938 186.44C64.1938 185.913 64.3904 185.497 64.7838 185.19C65.1838 184.883 65.6871 184.73 66.2938 184.73C66.5938 184.73 66.8638 184.76 67.1038 184.82C67.3438 184.873 67.5338 184.933 67.6738 185V184.74C67.6738 184.427 67.5571 184.173 67.3238 183.98C67.0904 183.78 66.7904 183.68 66.4238 183.68C66.1638 183.68 65.9171 183.737 65.6838 183.85C65.4571 183.963 65.2738 184.12 65.1338 184.32L64.3638 183.73C64.5904 183.417 64.8838 183.173 65.2438 183C65.6038 182.827 66.0038 182.74 66.4438 182.74C67.1838 182.74 67.7538 182.923 68.1538 183.29C68.5538 183.65 68.7538 184.16 68.7538 184.82V188H67.6738V187.39H67.6238C67.4771 187.61 67.2704 187.793 67.0038 187.94C66.7371 188.087 66.4304 188.16 66.0838 188.16ZM66.2738 187.25C66.5404 187.25 66.7804 187.187 66.9938 187.06C67.2071 186.933 67.3738 186.763 67.4938 186.55C67.6138 186.337 67.6738 186.107 67.6738 185.86C67.5204 185.773 67.3404 185.703 67.1338 185.65C66.9338 185.597 66.7238 185.57 66.5038 185.57C66.0904 185.57 65.7871 185.653 65.5938 185.82C65.4004 185.98 65.3038 186.19 65.3038 186.45C65.3038 186.683 65.3938 186.877 65.5738 187.03C65.7538 187.177 65.9871 187.25 66.2738 187.25ZM69.9525 182.9H71.0025V183.57H71.0525C71.1992 183.33 71.4158 183.133 71.7025 182.98C71.9958 182.82 72.3058 182.74 72.6325 182.74C73.2525 182.74 73.7225 182.923 74.0425 183.29C74.3692 183.65 74.5325 184.143 74.5325 184.77V188H73.4325V184.92C73.4325 184.52 73.3325 184.227 73.1325 184.04C72.9392 183.853 72.6692 183.76 72.3225 183.76C72.0758 183.76 71.8558 183.83 71.6625 183.97C71.4692 184.103 71.3192 184.283 71.2125 184.51C71.1058 184.737 71.0525 184.98 71.0525 185.24V188H69.9525V182.9Z" fill="black"/>
<path d="M116.156 180.84H120.506V181.91H117.276V183.97H120.186V185.03H117.276V188H116.156V180.84ZM123.54 188.16C123.04 188.16 122.59 188.043 122.19 187.81C121.797 187.577 121.487 187.257 121.26 186.85C121.04 186.437 120.93 185.973 120.93 185.46C120.93 184.973 121.037 184.523 121.25 184.11C121.47 183.69 121.774 183.357 122.16 183.11C122.547 182.863 122.987 182.74 123.48 182.74C123.994 182.74 124.437 182.853 124.81 183.08C125.19 183.307 125.477 183.617 125.67 184.01C125.87 184.403 125.97 184.847 125.97 185.34C125.97 185.433 125.96 185.55 125.94 185.69H122.03C122.07 186.163 122.237 186.53 122.53 186.79C122.83 187.043 123.177 187.17 123.57 187.17C123.884 187.17 124.154 187.1 124.38 186.96C124.614 186.813 124.8 186.617 124.94 186.37L125.87 186.81C125.63 187.23 125.317 187.56 124.93 187.8C124.544 188.04 124.08 188.16 123.54 188.16ZM124.85 184.85C124.837 184.67 124.78 184.493 124.68 184.32C124.58 184.14 124.427 183.99 124.22 183.87C124.02 183.75 123.774 183.69 123.48 183.69C123.127 183.69 122.827 183.797 122.58 184.01C122.34 184.217 122.174 184.497 122.08 184.85H124.85ZM129.692 188.16C129.332 188.16 129.009 188.08 128.722 187.92C128.435 187.76 128.219 187.567 128.072 187.34H128.022V188H126.972V180.84H128.072V182.85L128.022 183.57H128.072C128.219 183.337 128.435 183.14 128.722 182.98C129.009 182.82 129.332 182.74 129.692 182.74C130.152 182.74 130.569 182.857 130.942 183.09C131.315 183.323 131.609 183.647 131.822 184.06C132.042 184.467 132.152 184.93 132.152 185.45C132.152 185.97 132.042 186.437 131.822 186.85C131.609 187.257 131.315 187.577 130.942 187.81C130.569 188.043 130.152 188.16 129.692 188.16ZM129.532 187.15C129.799 187.15 130.049 187.08 130.282 186.94C130.515 186.8 130.702 186.6 130.842 186.34C130.982 186.08 131.052 185.783 131.052 185.45C131.052 185.117 130.982 184.823 130.842 184.57C130.702 184.31 130.515 184.11 130.282 183.97C130.049 183.83 129.799 183.76 129.532 183.76C129.265 183.76 129.015 183.83 128.782 183.97C128.555 184.11 128.372 184.31 128.232 184.57C128.092 184.823 128.022 185.117 128.022 185.45C128.022 185.783 128.092 186.08 128.232 186.34C128.372 186.6 128.555 186.8 128.782 186.94C129.015 187.08 129.265 187.15 129.532 187.15Z" fill="black"/>
<path d="M174.156 180.84H175.676L177.736 186.27H177.796L179.856 180.84H181.376V188H180.266V183.99L180.326 182.7H180.266L178.216 188H177.316L175.266 182.7H175.206L175.266 183.99V188H174.156V180.84ZM184.287 188.16C183.92 188.16 183.594 188.09 183.307 187.95C183.02 187.803 182.797 187.6 182.637 187.34C182.477 187.073 182.397 186.773 182.397 186.44C182.397 185.913 182.594 185.497 182.987 185.19C183.387 184.883 183.89 184.73 184.497 184.73C184.797 184.73 185.067 184.76 185.307 184.82C185.547 184.873 185.737 184.933 185.877 185V184.74C185.877 184.427 185.76 184.173 185.527 183.98C185.294 183.78 184.994 183.68 184.627 183.68C184.367 183.68 184.12 183.737 183.887 183.85C183.66 183.963 183.477 184.12 183.337 184.32L182.567 183.73C182.794 183.417 183.087 183.173 183.447 183C183.807 182.827 184.207 182.74 184.647 182.74C185.387 182.74 185.957 182.923 186.357 183.29C186.757 183.65 186.957 184.16 186.957 184.82V188H185.877V187.39H185.827C185.68 187.61 185.474 187.793 185.207 187.94C184.94 188.087 184.634 188.16 184.287 188.16ZM184.477 187.25C184.744 187.25 184.984 187.187 185.197 187.06C185.41 186.933 185.577 186.763 185.697 186.55C185.817 186.337 185.877 186.107 185.877 185.86C185.724 185.773 185.544 185.703 185.337 185.65C185.137 185.597 184.927 185.57 184.707 185.57C184.294 185.57 183.99 185.653 183.797 185.82C183.604 185.98 183.507 186.19 183.507 186.45C183.507 186.683 183.597 186.877 183.777 187.03C183.957 187.177 184.19 187.25 184.477 187.25ZM188.156 182.9H189.206V183.65H189.256C189.369 183.39 189.566 183.177 189.846 183.01C190.126 182.837 190.422 182.75 190.736 182.75C190.982 182.75 191.189 182.783 191.356 182.85V183.99C191.062 183.883 190.799 183.83 190.566 183.83C190.312 183.83 190.086 183.897 189.886 184.03C189.692 184.163 189.539 184.343 189.426 184.57C189.312 184.79 189.256 185.033 189.256 185.3V188H188.156V182.9Z" fill="black"/>
<path d="M235.176 180.84H236.456L239.146 188H237.906L237.266 186.17H234.376L233.726 188H232.486L235.176 180.84ZM236.886 185.13L236.126 183L235.846 182.17H235.786L235.506 183L234.746 185.13H236.886ZM239.948 182.9H240.998V183.57H241.048C241.194 183.337 241.411 183.14 241.698 182.98C241.984 182.82 242.308 182.74 242.668 182.74C243.128 182.74 243.544 182.857 243.918 183.09C244.291 183.323 244.584 183.647 244.798 184.06C245.018 184.467 245.128 184.93 245.128 185.45C245.128 185.97 245.018 186.437 244.798 186.85C244.584 187.257 244.291 187.577 243.918 187.81C243.544 188.043 243.128 188.16 242.668 188.16C242.308 188.16 241.984 188.08 241.698 187.92C241.411 187.76 241.194 187.567 241.048 187.34H240.998L241.048 188.05V190.16H239.948V182.9ZM242.508 187.15C242.774 187.15 243.024 187.08 243.258 186.94C243.491 186.8 243.678 186.6 243.818 186.34C243.958 186.08 244.028 185.783 244.028 185.45C244.028 185.117 243.958 184.823 243.818 184.57C243.678 184.31 243.491 184.11 243.258 183.97C243.024 183.83 242.774 183.76 242.508 183.76C242.241 183.76 241.991 183.83 241.758 183.97C241.531 184.11 241.348 184.31 241.208 184.57C241.068 184.823 240.998 185.117 240.998 185.45C240.998 185.783 241.068 186.08 241.208 186.34C241.348 186.6 241.531 186.8 241.758 186.94C241.991 187.08 242.241 187.15 242.508 187.15ZM246.081 182.9H247.131V183.65H247.181C247.295 183.39 247.491 183.177 247.771 183.01C248.051 182.837 248.348 182.75 248.661 182.75C248.908 182.75 249.115 182.783 249.281 182.85V183.99C248.988 183.883 248.725 183.83 248.491 183.83C248.238 183.83 248.011 183.897 247.811 184.03C247.618 184.163 247.465 184.343 247.351 184.57C247.238 184.79 247.181 185.033 247.181 185.3V188H246.081V182.9Z" fill="black"/>
<path d="M291.156 180.84H292.676L294.736 186.27H294.796L296.856 180.84H298.376V188H297.266V183.99L297.326 182.7H297.266L295.216 188H294.316L292.266 182.7H292.206L292.266 183.99V188H291.156V180.84ZM301.287 188.16C300.92 188.16 300.594 188.09 300.307 187.95C300.02 187.803 299.797 187.6 299.637 187.34C299.477 187.073 299.397 186.773 299.397 186.44C299.397 185.913 299.594 185.497 299.987 185.19C300.387 184.883 300.89 184.73 301.497 184.73C301.797 184.73 302.067 184.76 302.307 184.82C302.547 184.873 302.737 184.933 302.877 185V184.74C302.877 184.427 302.76 184.173 302.527 183.98C302.294 183.78 301.994 183.68 301.627 183.68C301.367 183.68 301.12 183.737 300.887 183.85C300.66 183.963 300.477 184.12 300.337 184.32L299.567 183.73C299.794 183.417 300.087 183.173 300.447 183C300.807 182.827 301.207 182.74 301.647 182.74C302.387 182.74 302.957 182.923 303.357 183.29C303.757 183.65 303.957 184.16 303.957 184.82V188H302.877V187.39H302.827C302.68 187.61 302.474 187.793 302.207 187.94C301.94 188.087 301.634 188.16 301.287 188.16ZM301.477 187.25C301.744 187.25 301.984 187.187 302.197 187.06C302.41 186.933 302.577 186.763 302.697 186.55C302.817 186.337 302.877 186.107 302.877 185.86C302.724 185.773 302.544 185.703 302.337 185.65C302.137 185.597 301.927 185.57 301.707 185.57C301.294 185.57 300.99 185.653 300.797 185.82C300.604 185.98 300.507 186.19 300.507 186.45C300.507 186.683 300.597 186.877 300.777 187.03C300.957 187.177 301.19 187.25 301.477 187.25ZM306.618 187.72L304.498 182.9H305.728L307.168 186.37H307.208L308.608 182.9H309.818L306.668 190.16H305.508L306.618 187.72Z" fill="black"/>
<path d="M352.896 188.16C352.349 188.16 351.873 188.013 351.466 187.72C351.059 187.42 350.773 187.003 350.606 186.47L351.646 186.04C351.853 186.74 352.269 187.09 352.896 187.09C353.243 187.09 353.519 186.973 353.726 186.74C353.933 186.5 354.036 186.187 354.036 185.8V180.84H355.146V185.76C355.146 186.267 355.049 186.7 354.856 187.06C354.663 187.42 354.396 187.693 354.056 187.88C353.716 188.067 353.329 188.16 352.896 188.16ZM358.246 188.16C357.626 188.16 357.153 187.977 356.826 187.61C356.506 187.237 356.346 186.72 356.346 186.06V182.9H357.446V185.91C357.446 186.323 357.543 186.633 357.736 186.84C357.936 187.047 358.196 187.15 358.516 187.15C358.776 187.15 359.006 187.083 359.206 186.95C359.406 186.81 359.559 186.627 359.666 186.4C359.773 186.173 359.826 185.93 359.826 185.67V182.9H360.926V188H359.886V187.34H359.826C359.686 187.58 359.469 187.777 359.176 187.93C358.883 188.083 358.573 188.16 358.246 188.16ZM362.206 182.9H363.256V183.57H363.306C363.453 183.33 363.67 183.133 363.956 182.98C364.25 182.82 364.56 182.74 364.886 182.74C365.506 182.74 365.976 182.923 366.296 183.29C366.623 183.65 366.786 184.143 366.786 184.77V188H365.686V184.92C365.686 184.52 365.586 184.227 365.386 184.04C365.193 183.853 364.923 183.76 364.576 183.76C364.33 183.76 364.11 183.83 363.916 183.97C363.723 184.103 363.573 184.283 363.466 184.51C363.36 184.737 363.306 184.98 363.306 185.24V188H362.206V182.9Z" fill="black"/>
<path d="M410.896 188.16C410.349 188.16 409.873 188.013 409.466 187.72C409.059 187.42 408.773 187.003 408.606 186.47L409.646 186.04C409.853 186.74 410.269 187.09 410.896 187.09C411.243 187.09 411.519 186.973 411.726 186.74C411.933 186.5 412.036 186.187 412.036 185.8V180.84H413.146V185.76C413.146 186.267 413.049 186.7 412.856 187.06C412.663 187.42 412.396 187.693 412.056 187.88C411.716 188.067 411.329 188.16 410.896 188.16ZM416.246 188.16C415.626 188.16 415.153 187.977 414.826 187.61C414.506 187.237 414.346 186.72 414.346 186.06V182.9H415.446V185.91C415.446 186.323 415.543 186.633 415.736 186.84C415.936 187.047 416.196 187.15 416.516 187.15C416.776 187.15 417.006 187.083 417.206 186.95C417.406 186.81 417.559 186.627 417.666 186.4C417.773 186.173 417.826 185.93 417.826 185.67V182.9H418.926V188H417.886V187.34H417.826C417.686 187.58 417.469 187.777 417.176 187.93C416.883 188.083 416.573 188.16 416.246 188.16ZM420.206 180.84H421.306V188H420.206V180.84Z" fill="black"/>
<path d="M465.176 180.84H466.456L469.146 188H467.906L467.266 186.17H464.376L463.726 188H462.486L465.176 180.84ZM466.886 185.13L466.126 183L465.846 182.17H465.786L465.506 183L464.746 185.13H466.886ZM471.545 188.16C470.925 188.16 470.452 187.977 470.125 187.61C469.805 187.237 469.645 186.72 469.645 186.06V182.9H470.745V185.91C470.745 186.323 470.842 186.633 471.035 186.84C471.235 187.047 471.495 187.15 471.815 187.15C472.075 187.15 472.305 187.083 472.505 186.95C472.705 186.81 472.858 186.627 472.965 186.4C473.072 186.173 473.125 185.93 473.125 185.67V182.9H474.225V188H473.185V187.34H473.125C472.985 187.58 472.768 187.777 472.475 187.93C472.182 188.083 471.872 188.16 471.545 188.16ZM477.756 190.32C477.13 190.32 476.61 190.177 476.196 189.89C475.79 189.603 475.516 189.263 475.376 188.87L476.406 188.44C476.513 188.707 476.683 188.92 476.916 189.08C477.156 189.247 477.436 189.33 477.756 189.33C478.223 189.33 478.586 189.19 478.846 188.91C479.113 188.637 479.246 188.25 479.246 187.75V187.28H479.186C479.02 187.52 478.796 187.71 478.516 187.85C478.243 187.983 477.926 188.05 477.566 188.05C477.14 188.05 476.743 187.94 476.376 187.72C476.01 187.5 475.716 187.19 475.496 186.79C475.283 186.383 475.176 185.92 475.176 185.4C475.176 184.88 475.283 184.42 475.496 184.02C475.716 183.613 476.01 183.3 476.376 183.08C476.743 182.853 477.14 182.74 477.566 182.74C477.92 182.74 478.236 182.81 478.516 182.95C478.796 183.09 479.02 183.28 479.186 183.52H479.246V182.9H480.296V187.72C480.296 188.273 480.19 188.743 479.976 189.13C479.763 189.523 479.463 189.82 479.076 190.02C478.696 190.22 478.256 190.32 477.756 190.32ZM477.766 187.05C478.033 187.05 478.28 186.987 478.506 186.86C478.733 186.727 478.913 186.537 479.046 186.29C479.18 186.037 479.246 185.74 479.246 185.4C479.246 184.88 479.103 184.477 478.816 184.19C478.536 183.897 478.186 183.75 477.766 183.75C477.493 183.75 477.243 183.817 477.016 183.95C476.79 184.077 476.61 184.263 476.476 184.51C476.343 184.757 476.276 185.053 476.276 185.4C476.276 185.747 476.343 186.043 476.476 186.29C476.61 186.537 476.79 186.727 477.016 186.86C477.243 186.987 477.493 187.05 477.766 187.05Z" fill="black"/>
<path d="M524.226 188.16C523.633 188.16 523.099 187.987 522.626 187.64C522.153 187.293 521.826 186.807 521.646 186.18L522.706 185.75C522.813 186.143 522.999 186.467 523.266 186.72C523.539 186.967 523.866 187.09 524.246 187.09C524.599 187.09 524.899 187 525.146 186.82C525.393 186.633 525.516 186.38 525.516 186.06C525.516 185.767 525.406 185.527 525.186 185.34C524.973 185.147 524.596 184.953 524.056 184.76L523.606 184.6C523.126 184.433 522.723 184.193 522.396 183.88C522.069 183.567 521.906 183.153 521.906 182.64C521.906 182.287 522.003 181.96 522.196 181.66C522.389 181.36 522.656 181.123 522.996 180.95C523.343 180.77 523.733 180.68 524.166 180.68C524.793 180.68 525.293 180.833 525.666 181.14C526.039 181.44 526.289 181.78 526.416 182.16L525.406 182.59C525.333 182.363 525.193 182.163 524.986 181.99C524.779 181.817 524.513 181.73 524.186 181.73C523.859 181.73 523.583 181.813 523.356 181.98C523.136 182.147 523.026 182.36 523.026 182.62C523.026 182.867 523.126 183.07 523.326 183.23C523.526 183.39 523.839 183.543 524.266 183.69L524.716 183.84C525.329 184.053 525.803 184.333 526.136 184.68C526.476 185.02 526.646 185.477 526.646 186.05C526.646 186.517 526.526 186.91 526.286 187.23C526.046 187.543 525.739 187.777 525.366 187.93C524.999 188.083 524.619 188.16 524.226 188.16ZM530.077 188.16C529.577 188.16 529.127 188.043 528.727 187.81C528.334 187.577 528.024 187.257 527.797 186.85C527.577 186.437 527.467 185.973 527.467 185.46C527.467 184.973 527.574 184.523 527.787 184.11C528.007 183.69 528.311 183.357 528.697 183.11C529.084 182.863 529.524 182.74 530.017 182.74C530.531 182.74 530.974 182.853 531.347 183.08C531.727 183.307 532.014 183.617 532.207 184.01C532.407 184.403 532.507 184.847 532.507 185.34C532.507 185.433 532.497 185.55 532.477 185.69H528.567C528.607 186.163 528.774 186.53 529.067 186.79C529.367 187.043 529.714 187.17 530.107 187.17C530.421 187.17 530.691 187.1 530.917 186.96C531.151 186.813 531.337 186.617 531.477 186.37L532.407 186.81C532.167 187.23 531.854 187.56 531.467 187.8C531.081 188.04 530.617 188.16 530.077 188.16ZM531.387 184.85C531.374 184.67 531.317 184.493 531.217 184.32C531.117 184.14 530.964 183.99 530.757 183.87C530.557 183.75 530.311 183.69 530.017 183.69C529.664 183.69 529.364 183.797 529.117 184.01C528.877 184.217 528.711 184.497 528.617 184.85H531.387ZM533.469 182.9H534.519V183.57H534.569C534.716 183.337 534.932 183.14 535.219 182.98C535.506 182.82 535.829 182.74 536.189 182.74C536.649 182.74 537.066 182.857 537.439 183.09C537.812 183.323 538.106 183.647 538.319 184.06C538.539 184.467 538.649 184.93 538.649 185.45C538.649 185.97 538.539 186.437 538.319 186.85C538.106 187.257 537.812 187.577 537.439 187.81C537.066 188.043 536.649 188.16 536.189 188.16C535.829 188.16 535.506 188.08 535.219 187.92C534.932 187.76 534.716 187.567 534.569 187.34H534.519L534.569 188.05V190.16H533.469V182.9ZM536.029 187.15C536.296 187.15 536.546 187.08 536.779 186.94C537.012 186.8 537.199 186.6 537.339 186.34C537.479 186.08 537.549 185.783 537.549 185.45C537.549 185.117 537.479 184.823 537.339 184.57C537.199 184.31 537.012 184.11 536.779 183.97C536.546 183.83 536.296 183.76 536.029 183.76C535.762 183.76 535.512 183.83 535.279 183.97C535.052 184.11 534.869 184.31 534.729 184.57C534.589 184.823 534.519 185.117 534.519 185.45C534.519 185.783 534.589 186.08 534.729 186.34C534.869 186.6 535.052 186.8 535.279 186.94C535.512 187.08 535.762 187.15 536.029 187.15Z" fill="black"/>
<path d="M583.506 188.16C582.813 188.16 582.183 187.997 581.616 187.67C581.049 187.337 580.603 186.883 580.276 186.31C579.956 185.737 579.796 185.107 579.796 184.42C579.796 183.733 579.956 183.107 580.276 182.54C580.603 181.967 581.049 181.513 581.616 181.18C582.183 180.847 582.813 180.68 583.506 180.68C584.199 180.68 584.826 180.847 585.386 181.18C585.953 181.513 586.399 181.967 586.726 182.54C587.053 183.107 587.216 183.733 587.216 184.42C587.216 185.107 587.053 185.737 586.726 186.31C586.406 186.883 585.963 187.337 585.396 187.67C584.829 187.997 584.199 188.16 583.506 188.16ZM583.506 187.09C583.979 187.09 584.413 186.977 584.806 186.75C585.199 186.523 585.509 186.21 585.736 185.81C585.963 185.403 586.076 184.94 586.076 184.42C586.076 183.9 585.963 183.44 585.736 183.04C585.509 182.633 585.199 182.317 584.806 182.09C584.413 181.863 583.979 181.75 583.506 181.75C583.033 181.75 582.599 181.863 582.206 182.09C581.813 182.317 581.499 182.633 581.266 183.04C581.039 183.44 580.926 183.9 580.926 184.42C580.926 184.94 581.039 185.403 581.266 185.81C581.499 186.21 581.813 186.523 582.206 186.75C582.599 186.977 583.033 187.09 583.506 187.09ZM590.676 188.16C590.169 188.16 589.712 188.043 589.306 187.81C588.906 187.577 588.592 187.257 588.366 186.85C588.146 186.437 588.036 185.97 588.036 185.45C588.036 184.93 588.146 184.467 588.366 184.06C588.592 183.647 588.906 183.323 589.306 183.09C589.712 182.857 590.169 182.74 590.676 182.74C591.236 182.74 591.712 182.867 592.106 183.12C592.499 183.373 592.779 183.717 592.946 184.15L591.936 184.57C591.709 184.03 591.279 183.76 590.646 183.76C590.372 183.76 590.119 183.83 589.886 183.97C589.659 184.11 589.476 184.31 589.336 184.57C589.202 184.823 589.136 185.117 589.136 185.45C589.136 185.783 589.202 186.08 589.336 186.34C589.476 186.6 589.659 186.8 589.886 186.94C590.119 187.08 590.372 187.15 590.646 187.15C590.966 187.15 591.239 187.08 591.466 186.94C591.699 186.793 591.876 186.587 591.996 186.32L592.986 186.75C592.792 187.183 592.499 187.527 592.106 187.78C591.712 188.033 591.236 188.16 590.676 188.16ZM595.962 188.08C595.736 188.08 595.522 188.043 595.322 187.97C595.122 187.897 594.959 187.8 594.832 187.68C594.546 187.393 594.402 187.003 594.402 186.51V183.87H593.512V182.9H594.402V181.46H595.502V182.9H596.742V183.87H595.502V186.27C595.502 186.543 595.556 186.737 595.662 186.85C595.762 186.983 595.936 187.05 596.182 187.05C596.296 187.05 596.396 187.037 596.482 187.01C596.569 186.977 596.662 186.927 596.762 186.86V187.93C596.542 188.03 596.276 188.08 595.962 188.08Z" fill="black"/>
<path d="M638.156 180.84H639.486L642.686 186.05H642.746L642.686 184.67V180.84H643.796V188H642.626L639.266 182.52H639.206L639.266 183.9V188H638.156V180.84ZM647.641 188.16C647.128 188.16 646.668 188.043 646.261 187.81C645.855 187.57 645.538 187.243 645.311 186.83C645.085 186.417 644.971 185.957 644.971 185.45C644.971 184.943 645.085 184.483 645.311 184.07C645.538 183.657 645.855 183.333 646.261 183.1C646.668 182.86 647.128 182.74 647.641 182.74C648.155 182.74 648.615 182.86 649.021 183.1C649.428 183.34 649.745 183.667 649.971 184.08C650.198 184.493 650.311 184.95 650.311 185.45C650.311 185.957 650.198 186.417 649.971 186.83C649.745 187.243 649.428 187.57 649.021 187.81C648.615 188.043 648.155 188.16 647.641 188.16ZM647.641 187.15C647.921 187.15 648.181 187.083 648.421 186.95C648.661 186.81 648.851 186.613 648.991 186.36C649.138 186.1 649.211 185.797 649.211 185.45C649.211 185.103 649.138 184.803 648.991 184.55C648.851 184.297 648.661 184.103 648.421 183.97C648.181 183.83 647.921 183.76 647.641 183.76C647.361 183.76 647.101 183.83 646.861 183.97C646.621 184.103 646.428 184.297 646.281 184.55C646.141 184.803 646.071 185.103 646.071 185.45C646.071 185.797 646.141 186.1 646.281 186.36C646.428 186.613 646.621 186.81 646.861 186.95C647.101 187.083 647.361 187.15 647.641 187.15ZM650.609 182.9H651.839L653.249 186.58H653.289L654.729 182.9H655.929L653.809 188H652.709L650.609 182.9Z" fill="black"/>
<path d="M697.156 180.84H699.446C700.186 180.84 700.833 180.99 701.386 181.29C701.939 181.59 702.363 182.013 702.656 182.56C702.956 183.1 703.106 183.72 703.106 184.42C703.106 185.12 702.956 185.743 702.656 186.29C702.363 186.83 701.939 187.25 701.386 187.55C700.833 187.85 700.186 188 699.446 188H697.156V180.84ZM699.426 186.93C700.226 186.93 700.849 186.71 701.296 186.27C701.749 185.823 701.976 185.207 701.976 184.42C701.976 183.64 701.749 183.027 701.296 182.58C700.849 182.133 700.226 181.91 699.426 181.91H698.276V186.93H699.426ZM706.386 188.16C705.886 188.16 705.436 188.043 705.036 187.81C704.643 187.577 704.333 187.257 704.106 186.85C703.886 186.437 703.776 185.973 703.776 185.46C703.776 184.973 703.883 184.523 704.096 184.11C704.316 183.69 704.619 183.357 705.006 183.11C705.393 182.863 705.833 182.74 706.326 182.74C706.839 182.74 707.283 182.853 707.656 183.08C708.036 183.307 708.323 183.617 708.516 184.01C708.716 184.403 708.816 184.847 708.816 185.34C708.816 185.433 708.806 185.55 708.786 185.69H704.876C704.916 186.163 705.083 186.53 705.376 186.79C705.676 187.043 706.023 187.17 706.416 187.17C706.729 187.17 706.999 187.1 707.226 186.96C707.459 186.813 707.646 186.617 707.786 186.37L708.716 186.81C708.476 187.23 708.163 187.56 707.776 187.8C707.389 188.04 706.926 188.16 706.386 188.16ZM707.696 184.85C707.683 184.67 707.626 184.493 707.526 184.32C707.426 184.14 707.273 183.99 707.066 183.87C706.866 183.75 706.619 183.69 706.326 183.69C705.973 183.69 705.673 183.797 705.426 184.01C705.186 184.217 705.019 184.497 704.926 184.85H707.696ZM712.227 188.16C711.72 188.16 711.263 188.043 710.857 187.81C710.457 187.577 710.143 187.257 709.917 186.85C709.697 186.437 709.587 185.97 709.587 185.45C709.587 184.93 709.697 184.467 709.917 184.06C710.143 183.647 710.457 183.323 710.857 183.09C711.263 182.857 711.72 182.74 712.227 182.74C712.787 182.74 713.263 182.867 713.657 183.12C714.05 183.373 714.33 183.717 714.497 184.15L713.487 184.57C713.26 184.03 712.83 183.76 712.197 183.76C711.923 183.76 711.67 183.83 711.437 183.97C711.21 184.11 711.027 184.31 710.887 184.57C710.753 184.823 710.687 185.117 710.687 185.45C710.687 185.783 710.753 186.08 710.887 186.34C711.027 186.6 711.21 186.8 711.437 186.94C711.67 187.08 711.923 187.15 712.197 187.15C712.517 187.15 712.79 187.08 713.017 186.94C713.25 186.793 713.427 186.587 713.547 186.32L714.537 186.75C714.343 187.183 714.05 187.527 713.657 187.78C713.263 188.033 712.787 188.16 712.227 188.16Z" fill="black"/>
<path d="M22.4542 68.64H19.2542V67.78L22.3642 63.16H23.5542V67.62H24.4242V68.64H23.5542V70H22.4542V68.64ZM22.4542 67.62V64.79H22.3942L20.4842 67.62H22.4542ZM28.2175 70.16C27.6575 70.16 27.1641 70.0033 26.7375 69.69C26.3108 69.37 25.9808 68.94 25.7475 68.4C25.5208 67.8533 25.4075 67.2467 25.4075 66.58C25.4075 65.9067 25.5208 65.3 25.7475 64.76C25.9808 64.2133 26.3108 63.7833 26.7375 63.47C27.1641 63.1567 27.6575 63 28.2175 63C28.7775 63 29.2675 63.1567 29.6875 63.47C30.1141 63.7833 30.4408 64.2133 30.6675 64.76C30.9008 65.3 31.0175 65.9067 31.0175 66.58C31.0175 67.2467 30.9008 67.8533 30.6675 68.4C30.4408 68.94 30.1141 69.37 29.6875 69.69C29.2608 70.0033 28.7708 70.16 28.2175 70.16ZM28.2175 69.12C28.5575 69.12 28.8541 69.01 29.1075 68.79C29.3675 68.5633 29.5641 68.26 29.6975 67.88C29.8375 67.4933 29.9075 67.06 29.9075 66.58C29.9075 66.1 29.8375 65.6667 29.6975 65.28C29.5641 64.8933 29.3675 64.59 29.1075 64.37C28.8541 64.15 28.5575 64.04 28.2175 64.04C27.8708 64.04 27.5708 64.15 27.3175 64.37C27.0641 64.59 26.8675 64.8933 26.7275 65.28C26.5941 65.6667 26.5275 66.1 26.5275 66.58C26.5275 67.06 26.5941 67.4933 26.7275 67.88C26.8675 68.26 27.0641 68.5633 27.3175 68.79C27.5708 69.01 27.8708 69.12 28.2175 69.12ZM33.1586 65.58C32.9252 65.58 32.7052 65.5233 32.4986 65.41C32.2986 65.29 32.1386 65.1333 32.0186 64.94C31.9052 64.74 31.8486 64.5233 31.8486 64.29C31.8486 64.0567 31.9052 63.84 32.0186 63.64C32.1386 63.44 32.2986 63.2833 32.4986 63.17C32.7052 63.0567 32.9252 63 33.1586 63C33.3919 63 33.6086 63.0567 33.8086 63.17C34.0086 63.2833 34.1652 63.44 34.2786 63.64C34.3986 63.84 34.4586 64.0567 34.4586 64.29C34.4586 64.5233 34.3986 64.74 34.2786 64.94C34.1652 65.1333 34.0086 65.29 33.8086 65.41C33.6086 65.5233 33.3919 65.58 33.1586 65.58ZM33.1586 64.88C33.3186 64.88 33.4519 64.8233 33.5586 64.71C33.6652 64.59 33.7186 64.45 33.7186 64.29C33.7186 64.1233 33.6652 63.9833 33.5586 63.87C33.4519 63.7567 33.3186 63.7 33.1586 63.7C32.9919 63.7 32.8552 63.7567 32.7486 63.87C32.6419 63.9833 32.5886 64.1233 32.5886 64.29C32.5886 64.45 32.6419 64.59 32.7486 64.71C32.8619 64.8233 32.9986 64.88 33.1586 64.88ZM37.7805 70.16C37.2739 70.16 36.8172 70.0433 36.4105 69.81C36.0105 69.5767 35.6972 69.2567 35.4705 68.85C35.2505 68.4367 35.1405 67.97 35.1405 67.45C35.1405 66.93 35.2505 66.4667 35.4705 66.06C35.6972 65.6467 36.0105 65.3233 36.4105 65.09C36.8172 64.8567 37.2739 64.74 37.7805 64.74C38.3405 64.74 38.8172 64.8667 39.2105 65.12C39.6039 65.3733 39.8839 65.7167 40.0505 66.15L39.0405 66.57C38.8139 66.03 38.3839 65.76 37.7505 65.76C37.4772 65.76 37.2239 65.83 36.9905 65.97C36.7639 66.11 36.5805 66.31 36.4405 66.57C36.3072 66.8233 36.2405 67.1167 36.2405 67.45C36.2405 67.7833 36.3072 68.08 36.4405 68.34C36.5805 68.6 36.7639 68.8 36.9905 68.94C37.2239 69.08 37.4772 69.15 37.7505 69.15C38.0705 69.15 38.3439 69.08 38.5705 68.94C38.8039 68.7933 38.9805 68.5867 39.1005 68.32L40.0905 68.75C39.8972 69.1833 39.6039 69.5267 39.2105 69.78C38.8172 70.0333 38.3405 70.16 37.7805 70.16Z" fill="black"/>
<path d="M22.1104 102.16C21.597 102.16 21.1204 102.013 20.6804 101.72C20.2404 101.42 19.937 100.983 19.7704 100.41L20.7904 99.99C20.8837 100.343 21.0437 100.617 21.2704 100.81C21.5037 101.003 21.7837 101.1 22.1104 101.1C22.4437 101.1 22.7304 101 22.9704 100.8C23.2104 100.593 23.3304 100.333 23.3304 100.02C23.3304 99.7 23.2037 99.44 22.9504 99.24C22.697 99.0333 22.3804 98.93 22.0004 98.93H21.4104V97.92H21.9404C22.267 97.92 22.5404 97.8333 22.7604 97.66C22.987 97.48 23.1004 97.2367 23.1004 96.93C23.1004 96.6567 23.0004 96.44 22.8004 96.28C22.6004 96.1133 22.347 96.03 22.0404 96.03C21.7404 96.03 21.5004 96.11 21.3204 96.27C21.147 96.43 21.0204 96.6267 20.9404 96.86L19.9304 96.44C20.0637 96.06 20.3104 95.7267 20.6704 95.44C21.0304 95.1467 21.4904 95 22.0504 95C22.4637 95 22.8337 95.08 23.1604 95.24C23.4937 95.4 23.7537 95.6233 23.9404 95.91C24.127 96.19 24.2204 96.5067 24.2204 96.86C24.2204 97.22 24.1337 97.5267 23.9604 97.78C23.787 98.0267 23.5737 98.2167 23.3204 98.35V98.41C23.6537 98.55 23.927 98.7633 24.1404 99.05C24.3537 99.3367 24.4604 99.68 24.4604 100.08C24.4604 100.48 24.357 100.837 24.1504 101.15C23.9504 101.463 23.6704 101.71 23.3104 101.89C22.957 102.07 22.557 102.16 22.1104 102.16ZM28.2175 102.16C27.6575 102.16 27.1641 102.003 26.7375 101.69C26.3108 101.37 25.9808 100.94 25.7475 100.4C25.5208 99.8533 25.4075 99.2467 25.4075 98.58C25.4075 97.9067 25.5208 97.3 25.7475 96.76C25.9808 96.2133 26.3108 95.7833 26.7375 95.47C27.1641 95.1567 27.6575 95 28.2175 95C28.7775 95 29.2675 95.1567 29.6875 95.47C30.1141 95.7833 30.4408 96.2133 30.6675 96.76C30.9008 97.3 31.0175 97.9067 31.0175 98.58C31.0175 99.2467 30.9008 99.8533 30.6675 100.4C30.4408 100.94 30.1141 101.37 29.6875 101.69C29.2608 102.003 28.7708 102.16 28.2175 102.16ZM28.2175 101.12C28.5575 101.12 28.8541 101.01 29.1075 100.79C29.3675 100.563 29.5641 100.26 29.6975 99.88C29.8375 99.4933 29.9075 99.06 29.9075 98.58C29.9075 98.1 29.8375 97.6667 29.6975 97.28C29.5641 96.8933 29.3675 96.59 29.1075 96.37C28.8541 96.15 28.5575 96.04 28.2175 96.04C27.8708 96.04 27.5708 96.15 27.3175 96.37C27.0641 96.59 26.8675 96.8933 26.7275 97.28C26.5941 97.6667 26.5275 98.1 26.5275 98.58C26.5275 99.06 26.5941 99.4933 26.7275 99.88C26.8675 100.26 27.0641 100.563 27.3175 100.79C27.5708 101.01 27.8708 101.12 28.2175 101.12ZM33.1586 97.58C32.9252 97.58 32.7052 97.5233 32.4986 97.41C32.2986 97.29 32.1386 97.1333 32.0186 96.94C31.9052 96.74 31.8486 96.5233 31.8486 96.29C31.8486 96.0567 31.9052 95.84 32.0186 95.64C32.1386 95.44 32.2986 95.2833 32.4986 95.17C32.7052 95.0567 32.9252 95 33.1586 95C33.3919 95 33.6086 95.0567 33.8086 95.17C34.0086 95.2833 34.1652 95.44 34.2786 95.64C34.3986 95.84 34.4586 96.0567 34.4586 96.29C34.4586 96.5233 34.3986 96.74 34.2786 96.94C34.1652 97.1333 34.0086 97.29 33.8086 97.41C33.6086 97.5233 33.3919 97.58 33.1586 97.58ZM33.1586 96.88C33.3186 96.88 33.4519 96.8233 33.5586 96.71C33.6652 96.59 33.7186 96.45 33.7186 96.29C33.7186 96.1233 33.6652 95.9833 33.5586 95.87C33.4519 95.7567 33.3186 95.7 33.1586 95.7C32.9919 95.7 32.8552 95.7567 32.7486 95.87C32.6419 95.9833 32.5886 96.1233 32.5886 96.29C32.5886 96.45 32.6419 96.59 32.7486 96.71C32.8619 96.8233 32.9986 96.88 33.1586 96.88ZM37.7805 102.16C37.2739 102.16 36.8172 102.043 36.4105 101.81C36.0105 101.577 35.6972 101.257 35.4705 100.85C35.2505 100.437 35.1405 99.97 35.1405 99.45C35.1405 98.93 35.2505 98.4667 35.4705 98.06C35.6972 97.6467 36.0105 97.3233 36.4105 97.09C36.8172 96.8567 37.2739 96.74 37.7805 96.74C38.3405 96.74 38.8172 96.8667 39.2105 97.12C39.6039 97.3733 39.8839 97.7167 40.0505 98.15L39.0405 98.57C38.8139 98.03 38.3839 97.76 37.7505 97.76C37.4772 97.76 37.2239 97.83 36.9905 97.97C36.7639 98.11 36.5805 98.31 36.4405 98.57C36.3072 98.8233 36.2405 99.1167 36.2405 99.45C36.2405 99.7833 36.3072 100.08 36.4405 100.34C36.5805 100.6 36.7639 100.8 36.9905 100.94C37.2239 101.08 37.4772 101.15 37.7505 101.15C38.0705 101.15 38.3439 101.08 38.5705 100.94C38.8039 100.793 38.9805 100.587 39.1005 100.32L40.0905 100.75C39.8972 101.183 39.6039 101.527 39.2105 101.78C38.8172 102.033 38.3405 102.16 37.7805 102.16Z" fill="black"/>
<path d="M19.9578 132.96C20.1711 132.747 20.5911 132.327 21.2178 131.7C21.8444 131.067 22.2611 130.637 22.4678 130.41C22.7478 130.11 22.9378 129.867 23.0378 129.68C23.1444 129.493 23.1978 129.27 23.1978 129.01C23.1978 128.75 23.0978 128.523 22.8978 128.33C22.6978 128.137 22.4278 128.04 22.0878 128.04C21.7745 128.04 21.5178 128.133 21.3178 128.32C21.1244 128.5 20.9978 128.71 20.9378 128.95L19.9378 128.54C20.0044 128.3 20.1278 128.063 20.3078 127.83C20.4944 127.597 20.7411 127.4 21.0478 127.24C21.3544 127.08 21.7078 127 22.1078 127C22.5411 127 22.9245 127.09 23.2578 127.27C23.5978 127.443 23.8578 127.683 24.0378 127.99C24.2245 128.29 24.3178 128.623 24.3178 128.99C24.3178 129.383 24.2145 129.763 24.0078 130.13C23.8078 130.49 23.5511 130.827 23.2378 131.14C23.1044 131.267 22.7678 131.6 22.2278 132.14C21.6811 132.687 21.4078 132.96 21.4078 132.96L21.4278 133H24.4078V134H19.9578V132.96ZM28.2175 134.16C27.6575 134.16 27.1641 134.003 26.7375 133.69C26.3108 133.37 25.9808 132.94 25.7475 132.4C25.5208 131.853 25.4075 131.247 25.4075 130.58C25.4075 129.907 25.5208 129.3 25.7475 128.76C25.9808 128.213 26.3108 127.783 26.7375 127.47C27.1641 127.157 27.6575 127 28.2175 127C28.7775 127 29.2675 127.157 29.6875 127.47C30.1141 127.783 30.4408 128.213 30.6675 128.76C30.9008 129.3 31.0175 129.907 31.0175 130.58C31.0175 131.247 30.9008 131.853 30.6675 132.4C30.4408 132.94 30.1141 133.37 29.6875 133.69C29.2608 134.003 28.7708 134.16 28.2175 134.16ZM28.2175 133.12C28.5575 133.12 28.8541 133.01 29.1075 132.79C29.3675 132.563 29.5641 132.26 29.6975 131.88C29.8375 131.493 29.9075 131.06 29.9075 130.58C29.9075 130.1 29.8375 129.667 29.6975 129.28C29.5641 128.893 29.3675 128.59 29.1075 128.37C28.8541 128.15 28.5575 128.04 28.2175 128.04C27.8708 128.04 27.5708 128.15 27.3175 128.37C27.0641 128.59 26.8675 128.893 26.7275 129.28C26.5941 129.667 26.5275 130.1 26.5275 130.58C26.5275 131.06 26.5941 131.493 26.7275 131.88C26.8675 132.26 27.0641 132.563 27.3175 132.79C27.5708 133.01 27.8708 133.12 28.2175 133.12ZM33.1586 129.58C32.9252 129.58 32.7052 129.523 32.4986 129.41C32.2986 129.29 32.1386 129.133 32.0186 128.94C31.9052 128.74 31.8486 128.523 31.8486 128.29C31.8486 128.057 31.9052 127.84 32.0186 127.64C32.1386 127.44 32.2986 127.283 32.4986 127.17C32.7052 127.057 32.9252 127 33.1586 127C33.3919 127 33.6086 127.057 33.8086 127.17C34.0086 127.283 34.1652 127.44 34.2786 127.64C34.3986 127.84 34.4586 128.057 34.4586 128.29C34.4586 128.523 34.3986 128.74 34.2786 128.94C34.1652 129.133 34.0086 129.29 33.8086 129.41C33.6086 129.523 33.3919 129.58 33.1586 129.58ZM33.1586 128.88C33.3186 128.88 33.4519 128.823 33.5586 128.71C33.6652 128.59 33.7186 128.45 33.7186 128.29C33.7186 128.123 33.6652 127.983 33.5586 127.87C33.4519 127.757 33.3186 127.7 33.1586 127.7C32.9919 127.7 32.8552 127.757 32.7486 127.87C32.6419 127.983 32.5886 128.123 32.5886 128.29C32.5886 128.45 32.6419 128.59 32.7486 128.71C32.8619 128.823 32.9986 128.88 33.1586 128.88ZM37.7805 134.16C37.2739 134.16 36.8172 134.043 36.4105 133.81C36.0105 133.577 35.6972 133.257 35.4705 132.85C35.2505 132.437 35.1405 131.97 35.1405 131.45C35.1405 130.93 35.2505 130.467 35.4705 130.06C35.6972 129.647 36.0105 129.323 36.4105 129.09C36.8172 128.857 37.2739 128.74 37.7805 128.74C38.3405 128.74 38.8172 128.867 39.2105 129.12C39.6039 129.373 39.8839 129.717 40.0505 130.15L39.0405 130.57C38.8139 130.03 38.3839 129.76 37.7505 129.76C37.4772 129.76 37.2239 129.83 36.9905 129.97C36.7639 130.11 36.5805 130.31 36.4405 130.57C36.3072 130.823 36.2405 131.117 36.2405 131.45C36.2405 131.783 36.3072 132.08 36.4405 132.34C36.5805 132.6 36.7639 132.8 36.9905 132.94C37.2239 133.08 37.4772 133.15 37.7505 133.15C38.0705 133.15 38.3439 133.08 38.5705 132.94C38.8039 132.793 38.9805 132.587 39.1005 132.32L40.0905 132.75C39.8972 133.183 39.6039 133.527 39.2105 133.78C38.8172 134.033 38.3405 134.16 37.7805 134.16Z" fill="black"/>
<path d="M22.9264 160.65L21.8064 161.46L21.2464 160.61L23.2564 159.16H24.0264V166H22.9264V160.65ZM28.2175 166.16C27.6575 166.16 27.1641 166.003 26.7375 165.69C26.3108 165.37 25.9808 164.94 25.7475 164.4C25.5208 163.853 25.4075 163.247 25.4075 162.58C25.4075 161.907 25.5208 161.3 25.7475 160.76C25.9808 160.213 26.3108 159.783 26.7375 159.47C27.1641 159.157 27.6575 159 28.2175 159C28.7775 159 29.2675 159.157 29.6875 159.47C30.1141 159.783 30.4408 160.213 30.6675 160.76C30.9008 161.3 31.0175 161.907 31.0175 162.58C31.0175 163.247 30.9008 163.853 30.6675 164.4C30.4408 164.94 30.1141 165.37 29.6875 165.69C29.2608 166.003 28.7708 166.16 28.2175 166.16ZM28.2175 165.12C28.5575 165.12 28.8541 165.01 29.1075 164.79C29.3675 164.563 29.5641 164.26 29.6975 163.88C29.8375 163.493 29.9075 163.06 29.9075 162.58C29.9075 162.1 29.8375 161.667 29.6975 161.28C29.5641 160.893 29.3675 160.59 29.1075 160.37C28.8541 160.15 28.5575 160.04 28.2175 160.04C27.8708 160.04 27.5708 160.15 27.3175 160.37C27.0641 160.59 26.8675 160.893 26.7275 161.28C26.5941 161.667 26.5275 162.1 26.5275 162.58C26.5275 163.06 26.5941 163.493 26.7275 163.88C26.8675 164.26 27.0641 164.563 27.3175 164.79C27.5708 165.01 27.8708 165.12 28.2175 165.12ZM33.1586 161.58C32.9252 161.58 32.7052 161.523 32.4986 161.41C32.2986 161.29 32.1386 161.133 32.0186 160.94C31.9052 160.74 31.8486 160.523 31.8486 160.29C31.8486 160.057 31.9052 159.84 32.0186 159.64C32.1386 159.44 32.2986 159.283 32.4986 159.17C32.7052 159.057 32.9252 159 33.1586 159C33.3919 159 33.6086 159.057 33.8086 159.17C34.0086 159.283 34.1652 159.44 34.2786 159.64C34.3986 159.84 34.4586 160.057 34.4586 160.29C34.4586 160.523 34.3986 160.74 34.2786 160.94C34.1652 161.133 34.0086 161.29 33.8086 161.41C33.6086 161.523 33.3919 161.58 33.1586 161.58ZM33.1586 160.88C33.3186 160.88 33.4519 160.823 33.5586 160.71C33.6652 160.59 33.7186 160.45 33.7186 160.29C33.7186 160.123 33.6652 159.983 33.5586 159.87C33.4519 159.757 33.3186 159.7 33.1586 159.7C32.9919 159.7 32.8552 159.757 32.7486 159.87C32.6419 159.983 32.5886 160.123 32.5886 160.29C32.5886 160.45 32.6419 160.59 32.7486 160.71C32.8619 160.823 32.9986 160.88 33.1586 160.88ZM37.7805 166.16C37.2739 166.16 36.8172 166.043 36.4105 165.81C36.0105 165.577 35.6972 165.257 35.4705 164.85C35.2505 164.437 35.1405 163.97 35.1405 163.45C35.1405 162.93 35.2505 162.467 35.4705 162.06C35.6972 161.647 36.0105 161.323 36.4105 161.09C36.8172 160.857 37.2739 160.74 37.7805 160.74C38.3405 160.74 38.8172 160.867 39.2105 161.12C39.6039 161.373 39.8839 161.717 40.0505 162.15L39.0405 162.57C38.8139 162.03 38.3839 161.76 37.7505 161.76C37.4772 161.76 37.2239 161.83 36.9905 161.97C36.7639 162.11 36.5805 162.31 36.4405 162.57C36.3072 162.823 36.2405 163.117 36.2405 163.45C36.2405 163.783 36.3072 164.08 36.4405 164.34C36.5805 164.6 36.7639 164.8 36.9905 164.94C37.2239 165.08 37.4772 165.15 37.7505 165.15C38.0705 165.15 38.3439 165.08 38.5705 164.94C38.8039 164.793 38.9805 164.587 39.1005 164.32L40.0905 164.75C39.8972 165.183 39.6039 165.527 39.2105 165.78C38.8172 166.033 38.3405 166.16 37.7805 166.16Z" fill="black"/>
<path d="M62.8235 161.5H708.261" stroke="#ACB6C6" stroke-linecap="round" stroke-dasharray="3 4"/>
<path d="M63.2759 130H708.713" stroke="#AFBCC4" stroke-linecap="round" stroke-dasharray="3 4"/>
<path d="M63.2759 99H708.713" stroke="#AFBCC4" stroke-linecap="round" stroke-dasharray="3 4"/>
<path d="M63.2759 68H708.713" stroke="#AFBCC4" stroke-linecap="round" stroke-dasharray="3 4"/>
<path d="M84.075 142.27L63 146.391V161.5H711.056V92.8208L671.917 114.798L644.82 94.1943L611.703 115.485L586.112 107.243L553.746 114.798L532.671 94.8811L515.36 70.5L484.5 91.7906H455.145L434.07 104.153H408.479L388.157 77.0245L370.093 122.696H350.523L320.416 107.93H297.083L265.47 132.655H238.374L227.084 153.258L212.03 122.696H190.203L181.171 129.221H160.848L136.762 138.492L125.472 110.334H99.1286L84.075 142.27Z" fill="url(#paint0_linear_52_1016)"/>
<path d="M63 145.695L84.075 141.612L99.1286 109.969H125.472L136.762 137.869L160.848 128.683H181.171L190.203 122.218H212.03L227.084 152.5L238.374 132.085H265.47L297.083 107.587H320.416L350.523 122.218H370.093L388.157 76.9647L408.479 103.844H434.07L455.145 91.5954H484.5L515.36 70.5L532.671 94.6577L553.746 114.392L586.111 106.907L611.703 115.073L644.82 93.9772L671.917 114.392L711.056 92.6162" stroke="url(#paint1_linear_52_1016)" stroke-width="2"/>
<path d="M5.094 4.112H7.884L12.726 17H10.044L8.964 13.922H4.032L2.952 17H0.27L5.094 4.112ZM8.172 11.69L7.038 8.45L6.57 6.902H6.426L5.958 8.45L4.806 11.69H8.172ZM12.2198 7.82H14.9018L17.2238 13.796H17.3678L19.7258 7.82H22.3718L18.4478 17H16.1078L12.2198 7.82ZM27.6903 17.288C26.7783 17.288 25.9563 17.078 25.2243 16.658C24.4923 16.238 23.9163 15.662 23.4963 14.93C23.0883 14.186 22.8843 13.352 22.8843 12.428C22.8843 11.552 23.0883 10.742 23.4963 9.998C23.9043 9.242 24.4683 8.642 25.1883 8.198C25.9083 7.754 26.7123 7.532 27.6003 7.532C28.5483 7.532 29.3643 7.736 30.0483 8.144C30.7323 8.552 31.2483 9.11 31.5963 9.818C31.9563 10.526 32.1363 11.312 32.1363 12.176C32.1363 12.452 32.1183 12.716 32.0823 12.968H25.1883C25.3083 13.7 25.5963 14.258 26.0523 14.642C26.5203 15.014 27.0783 15.2 27.7263 15.2C28.2663 15.2 28.7283 15.086 29.1123 14.858C29.5083 14.618 29.8203 14.3 30.0483 13.904L31.9563 14.84C31.0203 16.472 29.5983 17.288 27.6903 17.288ZM29.8683 11.294C29.8443 11.006 29.7363 10.724 29.5443 10.448C29.3643 10.16 29.1063 9.926 28.7703 9.746C28.4463 9.554 28.0623 9.458 27.6183 9.458C27.0543 9.458 26.5683 9.626 26.1603 9.962C25.7643 10.286 25.4763 10.73 25.2963 11.294H29.8683ZM33.9528 7.82H36.1668V9.044H36.3108C36.5388 8.612 36.8928 8.258 37.3728 7.982C37.8528 7.694 38.3808 7.55 38.9568 7.55C39.3768 7.55 39.7608 7.616 40.1088 7.748V10.106C39.7848 9.986 39.5088 9.902 39.2808 9.854C39.0648 9.794 38.8308 9.764 38.5788 9.764C37.8828 9.764 37.3308 10.016 36.9228 10.52C36.5148 11.024 36.3108 11.66 36.3108 12.428V17H33.9528V7.82ZM44.1612 17.288C43.1892 17.288 42.3912 17.006 41.7672 16.442C41.1432 15.866 40.8312 15.116 40.8312 14.192C40.8312 13.58 40.9932 13.04 41.3172 12.572C41.6412 12.104 42.0852 11.744 42.6492 11.492C43.2132 11.24 43.8372 11.114 44.5212 11.114C45.4692 11.114 46.2792 11.252 46.9512 11.528V11.132C46.9512 10.628 46.7592 10.22 46.3752 9.908C46.0032 9.596 45.4992 9.44 44.8632 9.44C44.4312 9.44 44.0112 9.542 43.6032 9.746C43.2072 9.938 42.8772 10.196 42.6132 10.52L41.1012 9.332C41.5452 8.756 42.1032 8.312 42.7752 8C43.4472 7.688 44.1792 7.532 44.9712 7.532C46.3752 7.532 47.4432 7.856 48.1752 8.504C48.9072 9.152 49.2732 10.1 49.2732 11.348V17H46.9512V16.064H46.8072C46.5312 16.424 46.1652 16.718 45.7092 16.946C45.2652 17.174 44.7492 17.288 44.1612 17.288ZM44.7192 15.452C45.4032 15.452 45.9432 15.236 46.3392 14.804C46.7472 14.36 46.9512 13.844 46.9512 13.256C46.3392 12.968 45.6972 12.824 45.0252 12.824C43.8012 12.824 43.1892 13.28 43.1892 14.192C43.1892 14.564 43.3212 14.87 43.5852 15.11C43.8492 15.338 44.2272 15.452 44.7192 15.452ZM55.5851 21.176C54.4211 21.176 53.4551 20.912 52.6871 20.384C51.9191 19.868 51.4031 19.244 51.1391 18.512L53.3531 17.612C53.5451 18.068 53.8391 18.428 54.2351 18.692C54.6311 18.956 55.0811 19.088 55.5851 19.088C56.3291 19.088 56.9171 18.86 57.3491 18.404C57.7931 17.948 58.0151 17.3 58.0151 16.46V15.74H57.8711C57.5831 16.148 57.2051 16.46 56.7371 16.676C56.2691 16.892 55.7351 17 55.1351 17C54.3791 17 53.6711 16.808 53.0111 16.424C52.3631 16.028 51.8411 15.476 51.4451 14.768C51.0491 14.048 50.8511 13.214 50.8511 12.266C50.8511 11.318 51.0491 10.49 51.4451 9.782C51.8411 9.062 52.3631 8.51 53.0111 8.126C53.6711 7.73 54.3791 7.532 55.1351 7.532C55.7351 7.532 56.2691 7.64 56.7371 7.856C57.2051 8.072 57.5831 8.384 57.8711 8.792H58.0151V7.82H60.2831V16.37C60.2831 17.354 60.0911 18.206 59.7071 18.926C59.3231 19.646 58.7771 20.198 58.0691 20.582C57.3611 20.978 56.5331 21.176 55.5851 21.176ZM55.6211 14.858C56.2811 14.858 56.8451 14.63 57.3131 14.174C57.7811 13.706 58.0151 13.07 58.0151 12.266C58.0151 11.438 57.7811 10.802 57.3131 10.358C56.8571 9.902 56.2931 9.674 55.6211 9.674C54.9491 9.674 54.3791 9.902 53.9111 10.358C53.4431 10.814 53.2091 11.45 53.2091 12.266C53.2091 13.082 53.4431 13.718 53.9111 14.174C54.3791 14.63 54.9491 14.858 55.6211 14.858ZM66.8017 17.288C65.8897 17.288 65.0677 17.078 64.3357 16.658C63.6037 16.238 63.0277 15.662 62.6077 14.93C62.1997 14.186 61.9957 13.352 61.9957 12.428C61.9957 11.552 62.1997 10.742 62.6077 9.998C63.0157 9.242 63.5797 8.642 64.2997 8.198C65.0197 7.754 65.8237 7.532 66.7117 7.532C67.6597 7.532 68.4757 7.736 69.1597 8.144C69.8437 8.552 70.3597 9.11 70.7077 9.818C71.0677 10.526 71.2477 11.312 71.2477 12.176C71.2477 12.452 71.2297 12.716 71.1937 12.968H64.2997C64.4197 13.7 64.7077 14.258 65.1637 14.642C65.6317 15.014 66.1897 15.2 66.8377 15.2C67.3777 15.2 67.8397 15.086 68.2237 14.858C68.6197 14.618 68.9317 14.3 69.1597 13.904L71.0677 14.84C70.1317 16.472 68.7097 17.288 66.8017 17.288ZM68.9797 11.294C68.9557 11.006 68.8477 10.724 68.6557 10.448C68.4757 10.16 68.2177 9.926 67.8817 9.746C67.5577 9.554 67.1737 9.458 66.7297 9.458C66.1657 9.458 65.6797 9.626 65.2717 9.962C64.8757 10.286 64.5877 10.73 64.4077 11.294H68.9797ZM77.6069 4.112H80.7389L84.1589 13.166H84.3029L87.7229 4.112H90.8729V17H88.4609V10.646L88.6049 8.504H88.4609L85.1849 17H83.2949L80.0009 8.504H79.8569L80.0009 10.646V17H77.6069V4.112ZM97.8819 17.288C96.9339 17.288 96.0879 17.078 95.3439 16.658C94.5999 16.226 94.0179 15.644 93.5979 14.912C93.1899 14.168 92.9859 13.334 92.9859 12.41C92.9859 11.498 93.1899 10.67 93.5979 9.926C94.0179 9.182 94.5999 8.6 95.3439 8.18C96.0879 7.748 96.9339 7.532 97.8819 7.532C98.8179 7.532 99.6579 7.748 100.402 8.18C101.146 8.6 101.722 9.182 102.13 9.926C102.55 10.67 102.76 11.498 102.76 12.41C102.76 13.334 102.55 14.168 102.13 14.912C101.722 15.644 101.146 16.226 100.402 16.658C99.6579 17.078 98.8179 17.288 97.8819 17.288ZM97.8819 15.11C98.3379 15.11 98.7579 15.002 99.1419 14.786C99.5259 14.57 99.8319 14.258 100.06 13.85C100.288 13.442 100.402 12.962 100.402 12.41C100.402 11.87 100.288 11.396 100.06 10.988C99.8319 10.58 99.5259 10.268 99.1419 10.052C98.7579 9.836 98.3379 9.728 97.8819 9.728C97.4259 9.728 97.0059 9.836 96.6219 10.052C96.2379 10.268 95.9259 10.58 95.6859 10.988C95.4579 11.396 95.3439 11.87 95.3439 12.41C95.3439 12.95 95.4579 13.43 95.6859 13.85C95.9259 14.258 96.2379 14.57 96.6219 14.786C97.0059 15.002 97.4259 15.11 97.8819 15.11ZM104.388 7.82H106.602V8.972H106.746C107.022 8.528 107.412 8.18 107.916 7.928C108.42 7.664 108.966 7.532 109.554 7.532C110.658 7.532 111.498 7.868 112.074 8.54C112.65 9.212 112.938 10.13 112.938 11.294V17H110.58V11.582C110.58 10.994 110.43 10.538 110.13 10.214C109.83 9.89 109.41 9.728 108.87 9.728C108.234 9.728 107.718 9.974 107.322 10.466C106.938 10.958 106.746 11.576 106.746 12.32V17H104.388V7.82ZM118.703 17.144C118.247 17.144 117.827 17.078 117.443 16.946C117.059 16.802 116.747 16.61 116.507 16.37C115.943 15.83 115.661 15.062 115.661 14.066V9.836H114.059V7.82H115.661V5.228H118.019V7.82H120.269V9.836H118.019V13.634C118.019 14.102 118.121 14.438 118.325 14.642C118.493 14.834 118.781 14.93 119.189 14.93C119.417 14.93 119.603 14.9 119.747 14.84C119.903 14.78 120.101 14.678 120.341 14.534V16.838C119.825 17.042 119.279 17.144 118.703 17.144ZM122.318 4.112H124.676V7.37L124.532 8.972H124.676C124.94 8.54 125.324 8.192 125.828 7.928C126.332 7.664 126.878 7.532 127.466 7.532C128.582 7.532 129.434 7.868 130.022 8.54C130.622 9.2 130.922 10.118 130.922 11.294V17H128.564V11.582C128.564 10.994 128.402 10.538 128.078 10.214C127.766 9.89 127.346 9.728 126.818 9.728C126.194 9.728 125.678 9.98 125.27 10.484C124.874 10.988 124.676 11.606 124.676 12.338V17H122.318V4.112ZM133.146 4.112H135.504V17H133.146V4.112ZM140.684 16.568L136.814 7.82H139.496L141.872 13.526H142.016L144.302 7.82H146.93L141.26 20.888H138.722L140.684 16.568ZM154.66 6.416H151.06V4.112H160.69V6.416H157.09V17H154.66V6.416ZM165.169 17.288C164.257 17.288 163.435 17.078 162.703 16.658C161.971 16.238 161.395 15.662 160.975 14.93C160.567 14.186 160.363 13.352 160.363 12.428C160.363 11.552 160.567 10.742 160.975 9.998C161.383 9.242 161.947 8.642 162.667 8.198C163.387 7.754 164.191 7.532 165.079 7.532C166.027 7.532 166.843 7.736 167.527 8.144C168.211 8.552 168.727 9.11 169.075 9.818C169.435 10.526 169.615 11.312 169.615 12.176C169.615 12.452 169.597 12.716 169.561 12.968H162.667C162.787 13.7 163.075 14.258 163.531 14.642C163.999 15.014 164.557 15.2 165.205 15.2C165.745 15.2 166.207 15.086 166.591 14.858C166.987 14.618 167.299 14.3 167.527 13.904L169.435 14.84C168.499 16.472 167.077 17.288 165.169 17.288ZM167.347 11.294C167.323 11.006 167.215 10.724 167.023 10.448C166.843 10.16 166.585 9.926 166.249 9.746C165.925 9.554 165.541 9.458 165.097 9.458C164.533 9.458 164.047 9.626 163.639 9.962C163.243 10.286 162.955 10.73 162.775 11.294H167.347ZM171.431 7.82H173.645V8.972H173.789C174.077 8.528 174.461 8.18 174.941 7.928C175.433 7.664 175.979 7.532 176.579 7.532C177.227 7.532 177.791 7.688 178.271 8C178.751 8.3 179.093 8.684 179.297 9.152C179.597 8.672 180.005 8.282 180.521 7.982C181.049 7.682 181.667 7.532 182.375 7.532C183.419 7.532 184.211 7.856 184.751 8.504C185.303 9.14 185.579 10.004 185.579 11.096V17H183.239V11.528C183.239 10.952 183.101 10.508 182.825 10.196C182.561 9.884 182.189 9.728 181.709 9.728C181.097 9.728 180.605 9.974 180.233 10.466C179.873 10.946 179.693 11.582 179.693 12.374V17H177.335V11.528C177.335 10.952 177.191 10.508 176.903 10.196C176.627 9.884 176.231 9.728 175.715 9.728C175.139 9.728 174.671 9.974 174.311 10.466C173.963 10.946 173.789 11.582 173.789 12.374V17H171.431V7.82ZM187.76 7.82H189.974V8.936H190.118C190.37 8.54 190.736 8.21 191.216 7.946C191.696 7.67 192.248 7.532 192.872 7.532C193.7 7.532 194.45 7.742 195.122 8.162C195.806 8.57 196.34 9.146 196.724 9.89C197.108 10.634 197.3 11.474 197.3 12.41C197.3 13.358 197.108 14.204 196.724 14.948C196.34 15.68 195.806 16.256 195.122 16.676C194.45 17.084 193.7 17.288 192.872 17.288C192.248 17.288 191.69 17.156 191.198 16.892C190.718 16.628 190.358 16.298 190.118 15.902H189.974L190.118 17.198V20.888H187.76V7.82ZM192.458 15.11C192.902 15.11 193.316 14.996 193.7 14.768C194.084 14.54 194.39 14.222 194.618 13.814C194.846 13.406 194.96 12.938 194.96 12.41C194.96 11.882 194.846 11.414 194.618 11.006C194.39 10.598 194.084 10.286 193.7 10.07C193.316 9.842 192.902 9.728 192.458 9.728C192.026 9.728 191.618 9.842 191.234 10.07C190.85 10.286 190.544 10.598 190.316 11.006C190.088 11.414 189.974 11.882 189.974 12.41C189.974 12.938 190.088 13.406 190.316 13.814C190.544 14.222 190.85 14.54 191.234 14.768C191.618 14.996 192.026 15.11 192.458 15.11ZM199.029 7.82H201.243V9.044H201.387C201.615 8.612 201.969 8.258 202.449 7.982C202.929 7.694 203.457 7.55 204.033 7.55C204.453 7.55 204.837 7.616 205.185 7.748V10.106C204.861 9.986 204.585 9.902 204.357 9.854C204.141 9.794 203.907 9.764 203.655 9.764C202.959 9.764 202.407 10.016 201.999 10.52C201.591 11.024 201.387 11.66 201.387 12.428V17H199.029V7.82ZM209.237 17.288C208.265 17.288 207.467 17.006 206.843 16.442C206.219 15.866 205.907 15.116 205.907 14.192C205.907 13.58 206.069 13.04 206.393 12.572C206.717 12.104 207.161 11.744 207.725 11.492C208.289 11.24 208.913 11.114 209.597 11.114C210.545 11.114 211.355 11.252 212.027 11.528V11.132C212.027 10.628 211.835 10.22 211.451 9.908C211.079 9.596 210.575 9.44 209.939 9.44C209.507 9.44 209.087 9.542 208.679 9.746C208.283 9.938 207.953 10.196 207.689 10.52L206.177 9.332C206.621 8.756 207.179 8.312 207.851 8C208.523 7.688 209.255 7.532 210.047 7.532C211.451 7.532 212.519 7.856 213.251 8.504C213.983 9.152 214.349 10.1 214.349 11.348V17H212.027V16.064H211.883C211.607 16.424 211.241 16.718 210.785 16.946C210.341 17.174 209.825 17.288 209.237 17.288ZM209.795 15.452C210.479 15.452 211.019 15.236 211.415 14.804C211.823 14.36 212.027 13.844 212.027 13.256C211.415 12.968 210.773 12.824 210.101 12.824C208.877 12.824 208.265 13.28 208.265 14.192C208.265 14.564 208.397 14.87 208.661 15.11C208.925 15.338 209.303 15.452 209.795 15.452ZM220.339 17.144C219.883 17.144 219.463 17.078 219.079 16.946C218.695 16.802 218.383 16.61 218.143 16.37C217.579 15.83 217.297 15.062 217.297 14.066V9.836H215.695V7.82H217.297V5.228H219.655V7.82H221.905V9.836H219.655V13.634C219.655 14.102 219.757 14.438 219.961 14.642C220.129 14.834 220.417 14.93 220.825 14.93C221.053 14.93 221.239 14.9 221.383 14.84C221.539 14.78 221.737 14.678 221.977 14.534V16.838C221.461 17.042 220.915 17.144 220.339 17.144ZM227.179 17.288C226.075 17.288 225.235 16.946 224.659 16.262C224.083 15.578 223.795 14.624 223.795 13.4V7.82H226.153V13.112C226.153 13.736 226.303 14.228 226.603 14.588C226.903 14.936 227.299 15.11 227.791 15.11C228.463 15.11 228.997 14.864 229.393 14.372C229.789 13.88 229.987 13.256 229.987 12.5V7.82H232.345V17H230.131V15.848H229.987C229.711 16.292 229.321 16.646 228.817 16.91C228.325 17.162 227.779 17.288 227.179 17.288ZM234.642 7.82H236.856V9.044H237C237.228 8.612 237.582 8.258 238.062 7.982C238.542 7.694 239.07 7.55 239.646 7.55C240.066 7.55 240.45 7.616 240.798 7.748V10.106C240.474 9.986 240.198 9.902 239.97 9.854C239.754 9.794 239.52 9.764 239.268 9.764C238.572 9.764 238.02 10.016 237.612 10.52C237.204 11.024 237 11.66 237 12.428V17H234.642V7.82ZM246.081 17.288C245.169 17.288 244.347 17.078 243.615 16.658C242.883 16.238 242.307 15.662 241.887 14.93C241.479 14.186 241.275 13.352 241.275 12.428C241.275 11.552 241.479 10.742 241.887 9.998C242.295 9.242 242.859 8.642 243.579 8.198C244.299 7.754 245.103 7.532 245.991 7.532C246.939 7.532 247.755 7.736 248.439 8.144C249.123 8.552 249.639 9.11 249.987 9.818C250.347 10.526 250.527 11.312 250.527 12.176C250.527 12.452 250.509 12.716 250.473 12.968H243.579C243.699 13.7 243.987 14.258 244.443 14.642C244.911 15.014 245.469 15.2 246.117 15.2C246.657 15.2 247.119 15.086 247.503 14.858C247.899 14.618 248.211 14.3 248.439 13.904L250.347 14.84C249.411 16.472 247.989 17.288 246.081 17.288ZM248.259 11.294C248.235 11.006 248.127 10.724 247.935 10.448C247.755 10.16 247.497 9.926 247.161 9.746C246.837 9.554 246.453 9.458 246.009 9.458C245.445 9.458 244.959 9.626 244.551 9.962C244.155 10.286 243.867 10.73 243.687 11.294H248.259Z" fill="#1B2767"/>
<defs>
<linearGradient id="paint0_linear_52_1016" x1="78.0536" y1="144.33" x2="711.053" y2="142.68" gradientUnits="userSpaceOnUse">
<stop stop-color="#4CDFE8" stop-opacity="0.05"/>
<stop offset="1" stop-color="#7947F7" stop-opacity="0.05"/>
</linearGradient>
<linearGradient id="paint1_linear_52_1016" x1="59.2366" y1="131.064" x2="720.841" y2="131.064" gradientUnits="userSpaceOnUse">
<stop stop-color="#4CDFE8"/>
<stop offset="1" stop-color="#7947F7"/>
</linearGradient>
</defs>
</svg>
