<svg width="18" height="20" viewBox="0 0 18 20" fill="none" xmlns="http://www.w3.org/2000/svg">
<path d="M2.30775 19.5C1.80258 19.5 1.375 19.325 1.025 18.975C0.675 18.625 0.5 18.1974 0.5 17.6922V4.30773C0.5 3.80257 0.675 3.37498 1.025 3.02498C1.375 2.67498 1.80258 2.49998 2.30775 2.49998H3.69225V1.15374C3.69225 0.934569 3.76567 0.751568 3.9125 0.604735C4.05933 0.458068 4.24233 0.384735 4.4615 0.384735C4.68083 0.384735 4.86383 0.458068 5.0105 0.604735C5.15733 0.751568 5.23075 0.934569 5.23075 1.15374V2.49998H12.8077V1.13474C12.8077 0.921902 12.8795 0.743651 13.023 0.599985C13.1667 0.456485 13.3449 0.384735 13.5577 0.384735C13.7706 0.384735 13.9487 0.456485 14.0922 0.599985C14.2359 0.743651 14.3077 0.921902 14.3077 1.13474V2.49998H15.6923C16.1974 2.49998 16.625 2.67498 16.975 3.02498C17.325 3.37498 17.5 3.80257 17.5 4.30773V17.6922C17.5 18.1974 17.325 18.625 16.975 18.975C16.625 19.325 16.1974 19.5 15.6923 19.5H2.30775ZM2.30775 18H15.6923C15.7692 18 15.8398 17.9679 15.9038 17.9037C15.9679 17.8397 16 17.7692 16 17.6922V8.30773H2V17.6922C2 17.7692 2.03208 17.8397 2.09625 17.9037C2.16025 17.9679 2.23075 18 2.30775 18ZM2 6.80773H16V4.30773C16 4.23073 15.9679 4.16023 15.9038 4.09623C15.8398 4.03207 15.7692 3.99998 15.6923 3.99998H2.30775C2.23075 3.99998 2.16025 4.03207 2.09625 4.09623C2.03208 4.16023 2 4.23073 2 4.30773V6.80773ZM9 12.077C8.75517 12.077 8.5465 11.9907 8.374 11.8182C8.20167 11.6459 8.1155 11.4372 8.1155 11.1922C8.1155 10.9474 8.20167 10.7387 8.374 10.5662C8.5465 10.3939 8.75517 10.3077 9 10.3077C9.24483 10.3077 9.4535 10.3939 9.626 10.5662C9.79833 10.7387 9.8845 10.9474 9.8845 11.1922C9.8845 11.4372 9.79833 11.6459 9.626 11.8182C9.4535 11.9907 9.24483 12.077 9 12.077ZM5 12.077C4.75517 12.077 4.5465 11.9907 4.374 11.8182C4.20167 11.6459 4.1155 11.4372 4.1155 11.1922C4.1155 10.9474 4.20167 10.7387 4.374 10.5662C4.5465 10.3939 4.75517 10.3077 5 10.3077C5.24483 10.3077 5.4535 10.3939 5.626 10.5662C5.79833 10.7387 5.8845 10.9474 5.8845 11.1922C5.8845 11.4372 5.79833 11.6459 5.626 11.8182C5.4535 11.9907 5.24483 12.077 5 12.077ZM13 12.077C12.7552 12.077 12.5465 11.9907 12.374 11.8182C12.2017 11.6459 12.1155 11.4372 12.1155 11.1922C12.1155 10.9474 12.2017 10.7387 12.374 10.5662C12.5465 10.3939 12.7552 10.3077 13 10.3077C13.2448 10.3077 13.4535 10.3939 13.626 10.5662C13.7983 10.7387 13.8845 10.9474 13.8845 11.1922C13.8845 11.4372 13.7983 11.6459 13.626 11.8182C13.4535 11.9907 13.2448 12.077 13 12.077ZM9 16C8.75517 16 8.5465 15.9137 8.374 15.7412C8.20167 15.5689 8.1155 15.3603 8.1155 15.1155C8.1155 14.8705 8.20167 14.6618 8.374 14.4895C8.5465 14.317 8.75517 14.2307 9 14.2307C9.24483 14.2307 9.4535 14.317 9.626 14.4895C9.79833 14.6618 9.8845 14.8705 9.8845 15.1155C9.8845 15.3603 9.79833 15.5689 9.626 15.7412C9.4535 15.9137 9.24483 16 9 16ZM5 16C4.75517 16 4.5465 15.9137 4.374 15.7412C4.20167 15.5689 4.1155 15.3603 4.1155 15.1155C4.1155 14.8705 4.20167 14.6618 4.374 14.4895C4.5465 14.317 4.75517 14.2307 5 14.2307C5.24483 14.2307 5.4535 14.317 5.626 14.4895C5.79833 14.6618 5.8845 14.8705 5.8845 15.1155C5.8845 15.3603 5.79833 15.5689 5.626 15.7412C5.4535 15.9137 5.24483 16 5 16ZM13 16C12.7552 16 12.5465 15.9137 12.374 15.7412C12.2017 15.5689 12.1155 15.3603 12.1155 15.1155C12.1155 14.8705 12.2017 14.6618 12.374 14.4895C12.5465 14.317 12.7552 14.2307 13 14.2307C13.2448 14.2307 13.4535 14.317 13.626 14.4895C13.7983 14.6618 13.8845 14.8705 13.8845 15.1155C13.8845 15.3603 13.7983 15.5689 13.626 15.7412C13.4535 15.9137 13.2448 16 13 16Z" fill="#003464"/>
</svg>
